<svg width="149" height="149" viewBox="0 0 149 149" fill="none" xmlns="http://www.w3.org/2000/svg">
<path d="M24.8333 49.6667C38.5484 35.9516 60.7849 35.9516 74.5 49.6667C88.2151 35.9516 110.452 35.9516 124.167 49.6667C137.882 63.3817 137.882 85.6183 124.167 99.3333L74.5 149L24.8333 99.3333C11.1183 85.6183 11.1183 63.3817 24.8333 49.6667Z" fill="#AA92A9"/>
<path d="M25.7391 94.2323L34.4308 85.5406L74.8372 125.947L66.1455 134.639L25.7391 94.2323Z" fill="white"/>
<path d="M34.4308 85.5406C36.6624 87.7722 36.5257 91.527 34.1256 93.9271C31.7255 96.3272 27.9707 96.4639 25.7391 94.2323C23.5075 92.0007 23.6442 88.246 26.0443 85.8458C28.4445 83.4457 32.1992 83.309 34.4308 85.5406Z" fill="white"/>
<path d="M74.8372 125.947C77.0687 128.179 76.9321 131.933 74.532 134.333C72.1318 136.734 68.3771 136.87 66.1455 134.639C63.9139 132.407 64.0506 128.652 66.4507 126.252C68.8508 123.852 72.6056 123.715 74.8372 125.947Z" fill="white"/>
</svg>
