<svg width="128" height="128" viewBox="0 0 128 128" fill="none" xmlns="http://www.w3.org/2000/svg">
<ellipse rx="26.6806" ry="20.868" transform="matrix(0.49792 0.867223 -0.86482 0.502082 85.513 89.6698)" fill="#FB8D8D"/>
<ellipse rx="26.6806" ry="20.868" transform="matrix(-0.497921 0.867223 -0.86482 -0.502082 42.2723 94.3846)" fill="#FB8D8D"/>
<ellipse rx="26.5702" ry="20.9545" transform="matrix(-0.998182 -0.0602635 0.0596008 -0.998222 27.7707 56.0463)" fill="#FB8D8D"/>
<ellipse rx="26.5708" ry="20.954" transform="matrix(0.996014 -0.089192 0.0882153 0.996101 99.6866 56.77)" fill="#FB8D8D"/>
<ellipse rx="26.7167" ry="20.8395" transform="matrix(0.0708479 -0.997487 0.997431 0.0716346 64.3566 28.1424)" fill="#FB8D8D"/>
<path d="M83.8766 65.7458C83.8766 78.0422 74.0802 88.0104 61.9957 88.0104C49.9113 88.0104 40.1149 78.0422 40.1149 65.7458C40.1149 53.4495 49.9113 43.4813 61.9957 43.4813C74.0802 43.4813 83.8766 53.4495 83.8766 65.7458Z" fill="#FFCACA"/>
</svg>
