<svg width="32" height="32" viewBox="0 0 32 32" fill="none" xmlns="http://www.w3.org/2000/svg">
<path fill-rule="evenodd" clip-rule="evenodd" d="M29.6667 27V17.6667H27V27H5.66667V5.66667H15V3H5.66667C4.19391 3 3 4.19391 3 5.66667V27C3 28.4728 4.19391 29.6667 5.66667 29.6667H27C28.4728 29.6667 29.6667 28.4728 29.6667 27ZM25.9041 3.96456C25.293 3.34856 24.4561 3 23.5831 3C22.7111 3 21.8752 3.34777 21.2605 3.96617L10.102 15.1246C9.10489 16.0031 8.45125 17.3104 8.33766 18.7164L8.33333 23.0031V24.3364H13.8461C15.3585 24.2327 16.6787 23.5727 17.61 22.4983L28.7053 11.4078C29.3209 10.7922 29.6667 9.95732 29.6667 9.08677C29.6667 8.21623 29.3209 7.38133 28.7053 6.76576L25.9041 3.96456ZM13.752 21.6731C14.4643 21.6227 15.1273 21.2912 15.6597 20.6822L23.7423 12.5996L20.0699 8.92702L11.9281 17.0661C11.3879 17.5439 11.0537 18.2123 11 18.8238V21.6706L13.752 21.6731ZM21.9558 7.04171L25.6279 10.714L26.8197 9.52216C26.9352 9.40669 27.0001 9.25008 27.0001 9.08677C27.0001 8.92347 26.9352 8.76686 26.8197 8.65138L24.0148 5.84648C23.9007 5.73139 23.7452 5.66667 23.5831 5.66667C23.421 5.66667 23.2656 5.73139 23.1514 5.84648L21.9558 7.04171Z" fill="#FB8D8D"/>
</svg>
