<svg width="32" height="32" viewBox="0 0 32 32" fill="none" xmlns="http://www.w3.org/2000/svg">
<path fill-rule="evenodd" clip-rule="evenodd" d="M12 1.33337H20C21.4727 1.33337 22.6666 2.52728 22.6666 4.00004V5.33337H26.6666C28.1394 5.33337 29.3333 6.52728 29.3333 8.00004V10.6667C29.3333 12.1395 28.1394 13.3334 26.6666 13.3334H26.5597L25.3333 28C25.3333 29.4728 24.1393 30.6667 22.6666 30.6667H9.33325C7.86049 30.6667 6.66659 29.4728 6.67119 28.1108L5.43974 13.3334H5.33329C3.86053 13.3334 2.66663 12.1395 2.66663 10.6667V8.00004C2.66663 6.52728 3.86053 5.33337 5.33329 5.33337H9.33329V4.00004C9.33329 2.52728 10.5272 1.33337 12 1.33337ZM5.33329 8.00004L9.33329 8.00004H22.6666L26.6666 8.00004V10.6667H5.33329V8.00004ZM8.11526 13.3334H23.8842L22.6712 27.8893L22.6666 28H9.33327L8.11526 13.3334ZM20 4.00004V5.33337H12V4.00004H20Z" fill="#333333"/>
</svg>
