<svg width="32" height="32" viewBox="0 0 32 32" fill="none" xmlns="http://www.w3.org/2000/svg">
<path fill-rule="evenodd" clip-rule="evenodd" d="M16 30.6666C7.89986 30.6666 1.33337 24.1002 1.33337 16C1.33337 7.8998 7.89986 1.33331 16 1.33331C24.1002 1.33331 30.6667 7.8998 30.6667 16C30.6667 24.1002 24.1002 30.6666 16 30.6666ZM16 28C22.6275 28 28 22.6274 28 16C28 9.37256 22.6275 3.99998 16 3.99998C9.37262 3.99998 4.00004 9.37256 4.00004 16C4.00004 22.6274 9.37262 28 16 28ZM15.6095 17.7238L12.5523 14.6666H18.6667C20.1395 14.6666 21.3334 15.8605 21.3334 17.3333C21.3334 18.8061 20.1395 20 18.6667 20V22.6666C21.6122 22.6666 24 20.2788 24 17.3333C24 14.3878 21.6122 12 18.6667 12H12.5523L15.6095 8.94277L13.7239 7.05716L7.44777 13.3333L13.7239 19.6094L15.6095 17.7238Z" fill="#FB8D8D"/>
</svg>
