<svg width="32" height="32" viewBox="0 0 32 32" fill="none" xmlns="http://www.w3.org/2000/svg">
<path fill-rule="evenodd" clip-rule="evenodd" d="M3.2 0H28.8C30.5673 0 32 1.43269 32 3.2V28.8C32 30.5673 30.5673 32 28.8 32H3.2C1.43269 32 0 30.5673 0 28.8V3.2C0 1.43269 1.43269 0 3.2 0ZM3.19996 3.19996V21.7373L9.6 15.3373L15.2 20.9372L25.6 10.5373L28.8 13.7373V3.19996H3.19996ZM3.19996 28.8V26.2628L9.6 19.8627L18.5372 28.8H3.19996ZM28.8 28.8H23.0627L17.4627 23.2L25.6 15.0627L28.8 18.2627V28.8ZM19.2 9.6C19.2 6.94903 17.051 4.8 14.4 4.8C11.749 4.8 9.6 6.94903 9.6 9.6C9.6 12.251 11.749 14.4 14.4 14.4C17.051 14.4 19.2 12.251 19.2 9.6ZM12.8 9.59996C12.8 8.7163 13.5163 7.99996 14.4 7.99996C15.2836 7.99996 16 8.7163 16 9.59996C16 10.4836 15.2836 11.2 14.4 11.2C13.5163 11.2 12.8 10.4836 12.8 9.59996Z" fill="#FB8D8D"/>
</svg>
