<svg width="32" height="32" viewBox="0 0 32 32" fill="none" xmlns="http://www.w3.org/2000/svg">
<path fill-rule="evenodd" clip-rule="evenodd" d="M26.909 4H5.09087C3.752 4 2.66663 5.19391 2.66663 6.66667V9.33333C2.66663 10.8061 3.752 12 5.09087 12H26.909C28.2479 12 29.3333 10.8061 29.3333 9.33333V6.66667C29.3333 5.19391 28.2479 4 26.909 4ZM5.09087 14.6667H26.909C28.2479 14.6667 29.3333 15.8606 29.3333 17.3333V20C29.3333 21.4728 28.2479 22.6667 26.909 22.6667H5.09087C3.752 22.6667 2.66663 21.4728 2.66663 20V17.3333C2.66663 15.8606 3.752 14.6667 5.09087 14.6667ZM5.33329 17.3333V20H26.6666V17.3333H5.33329ZM5.33329 6.66667V9.33333H26.6666V6.66667H5.33329ZM18.6666 25.3333H2.66663V28H18.6666V25.3333Z" fill="#333333"/>
</svg>
