<svg width="22" height="22" viewBox="0 0 22 22" fill="none" xmlns="http://www.w3.org/2000/svg">
<path fill-rule="evenodd" clip-rule="evenodd" d="M2.2 0H19.8C21.015 0 22 0.984973 22 2.2V19.8C22 21.015 21.015 22 19.8 22H2.2C0.984973 22 0 21.015 0 19.8V2.2C0 0.984973 0.984973 0 2.2 0ZM2.19997 2.20023V14.9446L6.6 10.5446L10.4497 14.3943L17.6 7.24407L19.8 9.44407V2.20023H2.19997ZM2.19997 19.8002V18.0559L6.6 13.6559L12.7443 19.8002H2.19997ZM19.8 19.8002H15.8556L12.0054 15.95L17.6 10.3553L19.8 12.5553V19.8002ZM13.2 6.59977C13.2 4.77723 11.7225 3.29977 9.9 3.29977C8.07746 3.29977 6.6 4.77723 6.6 6.59977C6.6 8.42231 8.07746 9.89977 9.9 9.89977C11.7225 9.89977 13.2 8.42231 13.2 6.59977ZM8.79997 6.6C8.79997 5.99249 9.29246 5.5 9.89997 5.5C10.5075 5.5 11 5.99249 11 6.6C11 7.20751 10.5075 7.7 9.89997 7.7C9.29246 7.7 8.79997 7.20751 8.79997 6.6Z" fill="#FFCACA"/>
</svg>
