<svg width="240" height="84" viewBox="0 0 240 84" fill="none" xmlns="http://www.w3.org/2000/svg">
<path d="M51.3145 25.2148C51.3145 20.4883 49.0944 16.5495 44.6543 13.3984C40.2858 10.2474 34.3418 8.67187 26.8223 8.67187C23.9577 8.67187 22.1315 8.7793 21.3438 8.99414C20.556 9.20898 20.1621 9.67448 20.1621 10.3906L20.1621 41.7578C20.1621 42.3307 20.3411 42.6888 20.6992 42.832C21.1289 42.9753 22.2747 43.0469 24.1367 43.0469C32.2292 43.0469 38.7819 41.3997 43.7949 38.1055C48.8079 34.8112 51.3145 30.5143 51.3145 25.2148ZM6.62695 4.91211C10.2793 4.91211 14.9342 4.73307 20.5918 4.375C26.2493 3.94531 30.2956 3.73047 32.7305 3.73047C42.112 3.73047 49.2734 5.95052 54.2148 10.3906C58.4401 14.2578 60.5527 19.0202 60.5527 24.6777V24.7852C60.4811 28.724 59.4069 32.2331 57.3301 35.3125C55.2533 38.3203 52.6035 40.6836 49.3809 42.4023C44.0814 45.4102 35.8457 46.9141 24.6738 46.9141H21.3438C20.4128 46.9141 19.9473 47.487 19.9473 48.6328L19.9473 70.9766C19.9473 72.2656 20.1621 73.2324 20.5918 73.877C21.0931 74.4499 22.0241 74.7721 23.3848 74.8438C29.9017 75.1302 33.375 75.3451 33.8047 75.4883C34.8073 75.7747 35.3086 76.5983 35.3086 77.959V78.0664C35.3086 79.7852 34.5924 80.6445 33.1602 80.6445L31.0117 80.4297C29.5794 80.3581 27.6458 80.2507 25.2109 80.1074C22.776 80.0358 20.377 80 18.0137 80C15.5788 80 13.1439 80.0358 10.709 80.1074C8.27409 80.2507 6.34049 80.3581 4.9082 80.4297L2.75977 80.6445C1.25586 80.6445 0.503906 79.7852 0.503906 78.0664C0.503906 77.7799 0.503906 77.5293 0.503906 77.3145C0.575521 77.028 0.611328 76.8132 0.611328 76.6699C0.682943 76.4551 0.790365 76.276 0.933594 76.1328C1.07682 75.9896 1.18424 75.8822 1.25586 75.8105C1.39909 75.6673 1.57813 75.5599 1.79297 75.4883C2.07943 75.4167 2.29427 75.3809 2.4375 75.3809C2.65234 75.3092 2.9388 75.2734 3.29688 75.2734C3.72656 75.2018 4.08464 75.166 4.37109 75.166C4.72917 75.0944 5.19466 75.0586 5.76758 75.0586C6.34049 74.987 6.8776 74.9154 7.37891 74.8438C8.59635 74.7005 9.38411 74.4141 9.74219 73.9844C10.1719 73.4831 10.3867 72.7669 10.3867 71.8359L10.3867 12.9688C10.3867 12.3958 10.3509 11.9661 10.2793 11.6797C10.2793 11.3216 10.0645 10.9993 9.63477 10.7129C9.27669 10.3548 8.73958 10.1758 8.02344 10.1758H4.04883C3.54753 10.1758 3.15365 10.14 2.86719 10.0684C2.58073 9.99674 2.25846 9.74609 1.90039 9.31641C1.61393 8.8151 1.4707 8.13477 1.4707 7.27539C1.4707 5.69987 2.25846 4.91211 3.83398 4.91211H6.62695ZM64.2051 57.5488C64.2051 50.1725 66.5326 44.1569 71.1875 39.502C75.9141 34.847 81.5 32.5195 87.9453 32.5195C94.5339 32.5195 100.012 34.8828 104.381 39.6094C108.749 44.2643 110.934 50.2441 110.934 57.5488C110.934 65.0684 108.642 71.0482 104.059 75.4883C99.5469 79.8568 94.0326 82.041 87.5156 82.041C80.6406 82.041 75.0189 79.6777 70.6504 74.9512C66.3535 70.2246 64.2051 64.4238 64.2051 57.5488ZM76.8809 71.1914C79.6738 74.8437 83.3262 76.6699 87.8379 76.6699C92.3496 76.6699 96.0736 74.8437 99.0098 71.1914C101.946 67.4674 103.414 63.0632 103.414 57.9785C103.414 52.2493 101.767 47.4512 98.4727 43.584C95.25 39.6452 91.4902 37.6758 87.1934 37.6758C83.6126 37.6758 80.2826 39.2513 77.2031 42.4023C74.1953 45.5534 72.6914 50.4232 72.6914 57.0117C72.6914 62.7409 74.0879 67.4674 76.8809 71.1914ZM138.219 78.4961C138.219 79.9284 137.789 80.6445 136.93 80.6445C136.858 80.6445 136.607 80.6087 136.178 80.5371C135.82 80.5371 135.318 80.5013 134.674 80.4297C134.029 80.3581 133.313 80.2865 132.525 80.2148C131.738 80.1432 130.807 80.0716 129.732 80C128.658 80 127.62 80 126.617 80C125.615 80 124.612 80 123.609 80C122.607 80.0716 121.712 80.1074 120.924 80.1074C120.136 80.179 119.42 80.2507 118.775 80.3223C118.202 80.3939 117.737 80.4297 117.379 80.4297C117.021 80.5013 116.806 80.5371 116.734 80.5371C115.66 80.5371 115.123 79.8926 115.123 78.6035V78.2812C115.123 77.3503 115.338 76.7773 115.768 76.5625C116.269 76.276 117.558 76.0254 119.635 75.8105C120.924 75.6673 121.747 75.2734 122.105 74.6289C122.535 73.9128 122.75 72.9102 122.75 71.6211V15.6543C122.75 15.4395 122.714 15.2604 122.643 15.1172C122.643 14.9023 122.607 14.7233 122.535 14.5801C122.464 14.4368 122.392 14.3294 122.32 14.2578C122.32 14.1146 122.213 14.0072 121.998 13.9355C121.855 13.7923 121.712 13.6849 121.568 13.6133C121.497 13.5417 121.282 13.4342 120.924 13.291C120.637 13.0762 120.423 12.9329 120.279 12.8613C119.563 12.4316 118.775 12.002 117.916 11.5723C117.128 11.071 116.555 10.7129 116.197 10.498C115.911 10.2832 115.589 10.0684 115.23 9.85352C114.872 9.56706 114.622 9.35221 114.479 9.20898C114.407 8.99414 114.371 8.7793 114.371 8.56445V8.45703C114.371 8.09896 115.732 7.20378 118.453 5.77148C121.819 4.12435 124.97 2.51302 127.906 0.9375C128.336 0.651042 128.801 0.507812 129.303 0.507812C130.305 0.507812 130.807 1.18815 130.807 2.54883L130.807 72.1582C130.807 72.5879 130.807 72.946 130.807 73.2324C130.878 73.5189 130.95 73.8053 131.021 74.0918C131.093 74.3066 131.165 74.4857 131.236 74.6289C131.308 74.7721 131.451 74.9154 131.666 75.0586C131.952 75.2018 132.132 75.3092 132.203 75.3809C132.346 75.4525 132.597 75.5599 132.955 75.7031C133.385 75.7747 133.671 75.8464 133.814 75.918C134.029 75.918 134.423 75.9538 134.996 76.0254C135.641 76.097 136.106 76.1686 136.393 76.2402C137.61 76.4551 138.219 77.207 138.219 78.4961ZM165.611 37.8906C160.169 37.8906 155.979 39.5378 153.043 42.832C150.107 46.1263 148.639 50.6022 148.639 56.2598C148.639 62.4902 150.715 67.4316 154.869 71.084C159.023 74.7363 163.32 76.5625 167.76 76.5625C169.98 76.5625 172.128 76.1328 174.205 75.2734C176.354 74.3424 177.643 73.1966 178.072 71.8359C178.359 70.6901 178.502 69.8665 178.502 69.3652L178.502 44.6582C178.502 43.7272 178.108 42.8678 177.32 42.0801C174.312 39.2871 170.41 37.8906 165.611 37.8906ZM165.826 33.4863C167.975 33.4863 169.98 33.6296 171.842 33.916C173.704 34.1309 175.136 34.3815 176.139 34.668L177.643 35.0977C178.215 35.0977 178.502 34.7754 178.502 34.1309V15.6543C178.502 15.4395 178.466 15.2604 178.395 15.1172C178.395 14.9023 178.359 14.7233 178.287 14.5801C178.287 14.4368 178.215 14.2936 178.072 14.1504C178.001 14.0072 177.929 13.8997 177.857 13.8281C177.786 13.7565 177.607 13.6491 177.32 13.5059C177.105 13.3626 176.891 13.2552 176.676 13.1836C176.533 13.0404 176.246 12.8971 175.816 12.7539C175.458 12.6107 175.1 12.4674 174.742 12.3242C174.456 12.181 174.026 12.002 173.453 11.7871C172.88 11.5723 172.343 11.3574 171.842 11.1426C170.481 10.7845 169.801 10.2116 169.801 9.42383C169.801 8.99414 170.123 8.56445 170.768 8.13477C179.934 3.69466 184.661 1.47461 184.947 1.47461C185.807 1.47461 186.236 1.97591 186.236 2.97852C186.236 3.69466 186.201 5.59245 186.129 8.67187C186.057 11.6797 185.986 15.8691 185.914 21.2402C185.914 26.5397 185.914 32.3405 185.914 38.6426C185.914 58.265 186.021 69.043 186.236 70.9766C186.236 71.1914 186.236 71.3704 186.236 71.5137C186.308 71.5853 186.38 71.6927 186.451 71.8359C186.523 71.9076 186.594 71.9792 186.666 72.0508C186.809 72.1224 186.952 72.194 187.096 72.2656C187.311 72.2656 187.49 72.3014 187.633 72.373C187.776 72.373 187.991 72.373 188.277 72.373C188.635 72.373 188.922 72.373 189.137 72.373C189.423 72.373 189.781 72.4089 190.211 72.4805C190.641 72.4805 191.035 72.4805 191.393 72.4805C192.825 72.4805 193.541 73.0176 193.541 74.0918C193.541 74.5931 193.326 74.987 192.896 75.2734C192.538 75.5599 191.715 75.9896 190.426 76.5625C189.208 77.0638 188.063 77.6367 186.988 78.2812C185.556 79.069 184.267 79.8568 183.121 80.6445C181.975 81.5039 181.152 82.1126 180.65 82.4707C180.149 82.9004 179.755 83.1152 179.469 83.1152C178.896 83.1152 178.609 82.7214 178.609 81.9336V78.3887C178.609 78.1738 178.502 78.0664 178.287 78.0664L177.643 78.4961C177.285 78.7826 176.747 79.1406 176.031 79.5703C175.315 80 174.456 80.4297 173.453 80.8594C172.522 81.2891 171.305 81.6471 169.801 81.9336C168.368 82.2201 166.865 82.3633 165.289 82.3633C158.199 82.3633 152.398 79.9642 147.887 75.166C143.447 70.2962 141.227 64.3164 141.227 57.2266C141.227 50.8529 143.268 45.3027 147.35 40.5762C151.503 35.8496 157.626 33.4863 165.719 33.4863H165.826ZM196.871 42.0801C196.871 39.9316 198.59 37.7832 202.027 35.6348C205.536 33.4147 209.439 32.3047 213.736 32.3047C215.097 32.3047 216.493 32.4479 217.926 32.7344C219.358 33.0208 220.969 33.5221 222.76 34.2383C224.622 34.9544 226.161 36.2077 227.379 37.998C228.668 39.7168 229.456 41.8294 229.742 44.3359C229.885 46.0547 229.957 47.3796 229.957 48.3105L229.957 70.0098C229.957 71.2988 230.208 72.3372 230.709 73.125C231.21 73.9128 231.712 74.4141 232.213 74.6289C232.714 74.7721 233.215 74.8437 233.717 74.8437C234.719 74.8437 235.507 74.5573 236.08 73.9844C236.653 73.3398 237.083 72.7311 237.369 72.1582C237.727 71.5137 238.121 71.1914 238.551 71.1914C239.195 71.1914 239.518 71.6569 239.518 72.5879C239.518 74.3066 238.73 76.2044 237.154 78.2812C235.579 80.2865 233.538 81.2891 231.031 81.2891C230.1 81.2891 229.205 81.1458 228.346 80.8594C227.486 80.5729 226.77 80.2148 226.197 79.7852C225.624 79.2839 225.087 78.8184 224.586 78.3887C224.156 77.959 223.798 77.5651 223.512 77.207L223.189 76.7773C223.118 76.7773 223.082 76.7773 223.082 76.7773C223.082 76.7057 223.046 76.6699 222.975 76.6699C222.831 76.6699 222.724 76.7415 222.652 76.8848C222.581 77.028 222.33 77.3145 221.9 77.7441C221.471 78.1738 220.862 78.6393 220.074 79.1406C216.852 81.1458 213.45 82.1484 209.869 82.1484C206.145 82.1484 203.102 80.9668 200.738 78.6035C198.447 76.2402 197.301 73.3398 197.301 69.9023V69.7949C197.301 65.6413 198.84 62.3828 201.92 60.0195C202.994 59.1602 204.391 58.4082 206.109 57.7637C207.828 57.0475 209.511 56.5104 211.158 56.1523C212.877 55.7943 214.488 55.5078 215.992 55.293C217.496 55.0065 218.749 54.8275 219.752 54.7559L221.256 54.6484C221.829 54.5052 222.115 54.0039 222.115 53.1445V49.1699C222.115 45.3743 221.256 42.4382 219.537 40.3613C217.747 38.4277 215.598 37.4609 213.092 37.4609C209.225 37.4609 206.074 39.8958 203.639 44.7656C202.994 45.625 202.206 46.0547 201.275 46.0547C200.13 46.0547 199.091 45.6966 198.16 44.9805C197.301 44.2643 196.871 43.2975 196.871 42.0801ZM212.447 76.1328C214.094 76.1328 215.634 75.7747 217.066 75.0586C218.57 74.3424 219.609 73.6979 220.182 73.125C220.755 72.5521 221.22 72.0508 221.578 71.6211C222.008 71.0482 222.223 70.2246 222.223 69.1504V66.4648V61.9531C222.223 60.5924 222.151 59.7331 222.008 59.375C221.936 58.9453 221.65 58.7305 221.148 58.7305C219.358 58.7305 217.102 59.0169 214.381 59.5898C211.731 60.1628 209.618 61.2012 208.043 62.7051C206.324 64.1374 205.465 66.1426 205.465 68.7207C205.465 71.4421 206.217 73.4473 207.721 74.7363C208.723 75.6673 210.299 76.1328 212.447 76.1328Z" fill="white"/>
<path d="M51.3145 25.2148C51.3145 20.4883 49.0944 16.5495 44.6543 13.3984C40.2858 10.2474 34.3418 8.67187 26.8223 8.67187C23.9577 8.67187 22.1315 8.7793 21.3438 8.99414C20.556 9.20898 20.1621 9.67448 20.1621 10.3906L20.1621 41.7578C20.1621 42.3307 20.3411 42.6888 20.6992 42.832C21.1289 42.9753 22.2747 43.0469 24.1367 43.0469C32.2292 43.0469 38.7819 41.3997 43.7949 38.1055C48.8079 34.8112 51.3145 30.5143 51.3145 25.2148ZM6.62695 4.91211C10.2793 4.91211 14.9342 4.73307 20.5918 4.375C26.2493 3.94531 30.2956 3.73047 32.7305 3.73047C42.112 3.73047 49.2734 5.95052 54.2148 10.3906C58.4401 14.2578 60.5527 19.0202 60.5527 24.6777V24.7852C60.4811 28.724 59.4069 32.2331 57.3301 35.3125C55.2533 38.3203 52.6035 40.6836 49.3809 42.4023C44.0814 45.4102 35.8457 46.9141 24.6738 46.9141H21.3438C20.4128 46.9141 19.9473 47.487 19.9473 48.6328L19.9473 70.9766C19.9473 72.2656 20.1621 73.2324 20.5918 73.877C21.0931 74.4499 22.0241 74.7721 23.3848 74.8438C29.9017 75.1302 33.375 75.3451 33.8047 75.4883C34.8073 75.7747 35.3086 76.5983 35.3086 77.959V78.0664C35.3086 79.7852 34.5924 80.6445 33.1602 80.6445L31.0117 80.4297C29.5794 80.3581 27.6458 80.2507 25.2109 80.1074C22.776 80.0358 20.377 80 18.0137 80C15.5788 80 13.1439 80.0358 10.709 80.1074C8.27409 80.2507 6.34049 80.3581 4.9082 80.4297L2.75977 80.6445C1.25586 80.6445 0.503906 79.7852 0.503906 78.0664C0.503906 77.7799 0.503906 77.5293 0.503906 77.3145C0.575521 77.028 0.611328 76.8132 0.611328 76.6699C0.682943 76.4551 0.790365 76.276 0.933594 76.1328C1.07682 75.9896 1.18424 75.8822 1.25586 75.8105C1.39909 75.6673 1.57813 75.5599 1.79297 75.4883C2.07943 75.4167 2.29427 75.3809 2.4375 75.3809C2.65234 75.3092 2.9388 75.2734 3.29688 75.2734C3.72656 75.2018 4.08464 75.166 4.37109 75.166C4.72917 75.0944 5.19466 75.0586 5.76758 75.0586C6.34049 74.987 6.8776 74.9154 7.37891 74.8438C8.59635 74.7005 9.38411 74.4141 9.74219 73.9844C10.1719 73.4831 10.3867 72.7669 10.3867 71.8359L10.3867 12.9688C10.3867 12.3958 10.3509 11.9661 10.2793 11.6797C10.2793 11.3216 10.0645 10.9993 9.63477 10.7129C9.27669 10.3548 8.73958 10.1758 8.02344 10.1758H4.04883C3.54753 10.1758 3.15365 10.14 2.86719 10.0684C2.58073 9.99674 2.25846 9.74609 1.90039 9.31641C1.61393 8.8151 1.4707 8.13477 1.4707 7.27539C1.4707 5.69987 2.25846 4.91211 3.83398 4.91211H6.62695ZM64.2051 57.5488C64.2051 50.1725 66.5326 44.1569 71.1875 39.502C75.9141 34.847 81.5 32.5195 87.9453 32.5195C94.5339 32.5195 100.012 34.8828 104.381 39.6094C108.749 44.2643 110.934 50.2441 110.934 57.5488C110.934 65.0684 108.642 71.0482 104.059 75.4883C99.5469 79.8568 94.0326 82.041 87.5156 82.041C80.6406 82.041 75.0189 79.6777 70.6504 74.9512C66.3535 70.2246 64.2051 64.4238 64.2051 57.5488ZM76.8809 71.1914C79.6738 74.8437 83.3262 76.6699 87.8379 76.6699C92.3496 76.6699 96.0736 74.8437 99.0098 71.1914C101.946 67.4674 103.414 63.0632 103.414 57.9785C103.414 52.2493 101.767 47.4512 98.4727 43.584C95.25 39.6452 91.4902 37.6758 87.1934 37.6758C83.6126 37.6758 80.2826 39.2513 77.2031 42.4023C74.1953 45.5534 72.6914 50.4232 72.6914 57.0117C72.6914 62.7409 74.0879 67.4674 76.8809 71.1914ZM138.219 78.4961C138.219 79.9284 137.789 80.6445 136.93 80.6445C136.858 80.6445 136.607 80.6087 136.178 80.5371C135.82 80.5371 135.318 80.5013 134.674 80.4297C134.029 80.3581 133.313 80.2865 132.525 80.2148C131.738 80.1432 130.807 80.0716 129.732 80C128.658 80 127.62 80 126.617 80C125.615 80 124.612 80 123.609 80C122.607 80.0716 121.712 80.1074 120.924 80.1074C120.136 80.179 119.42 80.2507 118.775 80.3223C118.202 80.3939 117.737 80.4297 117.379 80.4297C117.021 80.5013 116.806 80.5371 116.734 80.5371C115.66 80.5371 115.123 79.8926 115.123 78.6035V78.2812C115.123 77.3503 115.338 76.7773 115.768 76.5625C116.269 76.276 117.558 76.0254 119.635 75.8105C120.924 75.6673 121.747 75.2734 122.105 74.6289C122.535 73.9128 122.75 72.9102 122.75 71.6211V15.6543C122.75 15.4395 122.714 15.2604 122.643 15.1172C122.643 14.9023 122.607 14.7233 122.535 14.5801C122.464 14.4368 122.392 14.3294 122.32 14.2578C122.32 14.1146 122.213 14.0072 121.998 13.9355C121.855 13.7923 121.712 13.6849 121.568 13.6133C121.497 13.5417 121.282 13.4342 120.924 13.291C120.637 13.0762 120.423 12.9329 120.279 12.8613C119.563 12.4316 118.775 12.002 117.916 11.5723C117.128 11.071 116.555 10.7129 116.197 10.498C115.911 10.2832 115.589 10.0684 115.23 9.85352C114.872 9.56706 114.622 9.35221 114.479 9.20898C114.407 8.99414 114.371 8.7793 114.371 8.56445V8.45703C114.371 8.09896 115.732 7.20378 118.453 5.77148C121.819 4.12435 124.97 2.51302 127.906 0.9375C128.336 0.651042 128.801 0.507812 129.303 0.507812C130.305 0.507812 130.807 1.18815 130.807 2.54883L130.807 72.1582C130.807 72.5879 130.807 72.946 130.807 73.2324C130.878 73.5189 130.95 73.8053 131.021 74.0918C131.093 74.3066 131.165 74.4857 131.236 74.6289C131.308 74.7721 131.451 74.9154 131.666 75.0586C131.952 75.2018 132.132 75.3092 132.203 75.3809C132.346 75.4525 132.597 75.5599 132.955 75.7031C133.385 75.7747 133.671 75.8464 133.814 75.918C134.029 75.918 134.423 75.9538 134.996 76.0254C135.641 76.097 136.106 76.1686 136.393 76.2402C137.61 76.4551 138.219 77.207 138.219 78.4961ZM165.611 37.8906C160.169 37.8906 155.979 39.5378 153.043 42.832C150.107 46.1263 148.639 50.6022 148.639 56.2598C148.639 62.4902 150.715 67.4316 154.869 71.084C159.023 74.7363 163.32 76.5625 167.76 76.5625C169.98 76.5625 172.128 76.1328 174.205 75.2734C176.354 74.3424 177.643 73.1966 178.072 71.8359C178.359 70.6901 178.502 69.8665 178.502 69.3652L178.502 44.6582C178.502 43.7272 178.108 42.8678 177.32 42.0801C174.312 39.2871 170.41 37.8906 165.611 37.8906ZM165.826 33.4863C167.975 33.4863 169.98 33.6296 171.842 33.916C173.704 34.1309 175.136 34.3815 176.139 34.668L177.643 35.0977C178.215 35.0977 178.502 34.7754 178.502 34.1309V15.6543C178.502 15.4395 178.466 15.2604 178.395 15.1172C178.395 14.9023 178.359 14.7233 178.287 14.5801C178.287 14.4368 178.215 14.2936 178.072 14.1504C178.001 14.0072 177.929 13.8997 177.857 13.8281C177.786 13.7565 177.607 13.6491 177.32 13.5059C177.105 13.3626 176.891 13.2552 176.676 13.1836C176.533 13.0404 176.246 12.8971 175.816 12.7539C175.458 12.6107 175.1 12.4674 174.742 12.3242C174.456 12.181 174.026 12.002 173.453 11.7871C172.88 11.5723 172.343 11.3574 171.842 11.1426C170.481 10.7845 169.801 10.2116 169.801 9.42383C169.801 8.99414 170.123 8.56445 170.768 8.13477C179.934 3.69466 184.661 1.47461 184.947 1.47461C185.807 1.47461 186.236 1.97591 186.236 2.97852C186.236 3.69466 186.201 5.59245 186.129 8.67187C186.057 11.6797 185.986 15.8691 185.914 21.2402C185.914 26.5397 185.914 32.3405 185.914 38.6426C185.914 58.265 186.021 69.043 186.236 70.9766C186.236 71.1914 186.236 71.3704 186.236 71.5137C186.308 71.5853 186.38 71.6927 186.451 71.8359C186.523 71.9076 186.594 71.9792 186.666 72.0508C186.809 72.1224 186.952 72.194 187.096 72.2656C187.311 72.2656 187.49 72.3014 187.633 72.373C187.776 72.373 187.991 72.373 188.277 72.373C188.635 72.373 188.922 72.373 189.137 72.373C189.423 72.373 189.781 72.4089 190.211 72.4805C190.641 72.4805 191.035 72.4805 191.393 72.4805C192.825 72.4805 193.541 73.0176 193.541 74.0918C193.541 74.5931 193.326 74.987 192.896 75.2734C192.538 75.5599 191.715 75.9896 190.426 76.5625C189.208 77.0638 188.063 77.6367 186.988 78.2812C185.556 79.069 184.267 79.8568 183.121 80.6445C181.975 81.5039 181.152 82.1126 180.65 82.4707C180.149 82.9004 179.755 83.1152 179.469 83.1152C178.896 83.1152 178.609 82.7214 178.609 81.9336V78.3887C178.609 78.1738 178.502 78.0664 178.287 78.0664L177.643 78.4961C177.285 78.7826 176.747 79.1406 176.031 79.5703C175.315 80 174.456 80.4297 173.453 80.8594C172.522 81.2891 171.305 81.6471 169.801 81.9336C168.368 82.2201 166.865 82.3633 165.289 82.3633C158.199 82.3633 152.398 79.9642 147.887 75.166C143.447 70.2962 141.227 64.3164 141.227 57.2266C141.227 50.8529 143.268 45.3027 147.35 40.5762C151.503 35.8496 157.626 33.4863 165.719 33.4863H165.826ZM196.871 42.0801C196.871 39.9316 198.59 37.7832 202.027 35.6348C205.536 33.4147 209.439 32.3047 213.736 32.3047C215.097 32.3047 216.493 32.4479 217.926 32.7344C219.358 33.0208 220.969 33.5221 222.76 34.2383C224.622 34.9544 226.161 36.2077 227.379 37.998C228.668 39.7168 229.456 41.8294 229.742 44.3359C229.885 46.0547 229.957 47.3796 229.957 48.3105L229.957 70.0098C229.957 71.2988 230.208 72.3372 230.709 73.125C231.21 73.9128 231.712 74.4141 232.213 74.6289C232.714 74.7721 233.215 74.8437 233.717 74.8437C234.719 74.8437 235.507 74.5573 236.08 73.9844C236.653 73.3398 237.083 72.7311 237.369 72.1582C237.727 71.5137 238.121 71.1914 238.551 71.1914C239.195 71.1914 239.518 71.6569 239.518 72.5879C239.518 74.3066 238.73 76.2044 237.154 78.2812C235.579 80.2865 233.538 81.2891 231.031 81.2891C230.1 81.2891 229.205 81.1458 228.346 80.8594C227.486 80.5729 226.77 80.2148 226.197 79.7852C225.624 79.2839 225.087 78.8184 224.586 78.3887C224.156 77.959 223.798 77.5651 223.512 77.207L223.189 76.7773C223.118 76.7773 223.082 76.7773 223.082 76.7773C223.082 76.7057 223.046 76.6699 222.975 76.6699C222.831 76.6699 222.724 76.7415 222.652 76.8848C222.581 77.028 222.33 77.3145 221.9 77.7441C221.471 78.1738 220.862 78.6393 220.074 79.1406C216.852 81.1458 213.45 82.1484 209.869 82.1484C206.145 82.1484 203.102 80.9668 200.738 78.6035C198.447 76.2402 197.301 73.3398 197.301 69.9023V69.7949C197.301 65.6413 198.84 62.3828 201.92 60.0195C202.994 59.1602 204.391 58.4082 206.109 57.7637C207.828 57.0475 209.511 56.5104 211.158 56.1523C212.877 55.7943 214.488 55.5078 215.992 55.293C217.496 55.0065 218.749 54.8275 219.752 54.7559L221.256 54.6484C221.829 54.5052 222.115 54.0039 222.115 53.1445V49.1699C222.115 45.3743 221.256 42.4382 219.537 40.3613C217.747 38.4277 215.598 37.4609 213.092 37.4609C209.225 37.4609 206.074 39.8958 203.639 44.7656C202.994 45.625 202.206 46.0547 201.275 46.0547C200.13 46.0547 199.091 45.6966 198.16 44.9805C197.301 44.2643 196.871 43.2975 196.871 42.0801ZM212.447 76.1328C214.094 76.1328 215.634 75.7747 217.066 75.0586C218.57 74.3424 219.609 73.6979 220.182 73.125C220.755 72.5521 221.22 72.0508 221.578 71.6211C222.008 71.0482 222.223 70.2246 222.223 69.1504V66.4648V61.9531C222.223 60.5924 222.151 59.7331 222.008 59.375C221.936 58.9453 221.65 58.7305 221.148 58.7305C219.358 58.7305 217.102 59.0169 214.381 59.5898C211.731 60.1628 209.618 61.2012 208.043 62.7051C206.324 64.1374 205.465 66.1426 205.465 68.7207C205.465 71.4421 206.217 73.4473 207.721 74.7363C208.723 75.6673 210.299 76.1328 212.447 76.1328Z" fill="url(#paint0_radial)"/>
<defs>
<radialGradient id="paint0_radial" cx="0" cy="0" r="1" gradientUnits="userSpaceOnUse" gradientTransform="translate(120 44) rotate(90) scale(75 121)">
<stop stop-color="#FB8D8D" stop-opacity="0.91"/>
<stop offset="1" stop-color="#FFCACA"/>
</radialGradient>
</defs>
</svg>
