<svg width="32" height="32" viewBox="0 0 32 32" fill="none" xmlns="http://www.w3.org/2000/svg">
<path fill-rule="evenodd" clip-rule="evenodd" d="M16 30.6666C7.8998 30.6666 1.33331 24.1002 1.33331 16C1.33331 7.8998 7.8998 1.33331 16 1.33331C24.1002 1.33331 30.6666 7.8998 30.6666 16C30.6666 24.1002 24.1002 30.6666 16 30.6666ZM16 28C22.6274 28 28 22.6274 28 16C28 9.37256 22.6274 3.99998 16 3.99998C9.37256 3.99998 3.99998 9.37256 3.99998 16C3.99998 22.6274 9.37256 28 16 28ZM16.3905 8.94279L19.4477 12H13.3333C10.3878 12 7.99998 14.3878 7.99998 17.3333C7.99998 20.2788 10.3878 22.6667 13.3333 22.6667V20C11.8606 20 10.6666 18.8061 10.6666 17.3333C10.6666 15.8606 11.8606 14.6667 13.3333 14.6667H19.4477L16.3905 17.7238L18.2761 19.6095L24.5523 13.3333L18.2761 7.05718L16.3905 8.94279Z" fill="#FB8D8D"/>
</svg>
