<svg width="32" height="32" viewBox="0 0 32 32" fill="none" xmlns="http://www.w3.org/2000/svg">
<path fill-rule="evenodd" clip-rule="evenodd" d="M12 1.33325H20C21.4728 1.33325 22.6667 2.52716 22.6667 3.99992V5.33325H26.6667C28.1394 5.33325 29.3334 6.52716 29.3334 7.99992V10.6666C29.3334 12.1393 28.1394 13.3333 26.6667 13.3333H26.5598L25.3334 27.9999C25.3334 29.4727 24.1394 30.6666 22.6667 30.6666H9.33336C7.8606 30.6666 6.66669 29.4727 6.6713 28.1106L5.43985 13.3333H5.33335C3.86059 13.3333 2.66669 12.1393 2.66669 10.6666V7.99992C2.66669 6.52716 3.86059 5.33325 5.33335 5.33325H9.33335V3.99992C9.33335 2.52716 10.5273 1.33325 12 1.33325ZM5.33335 7.99992L9.33335 7.99992H22.6667L26.6667 7.99992V10.6666H5.33335V7.99992ZM8.11534 13.3333H23.8843L22.6713 27.8892L22.6667 27.9999H9.33335L8.11534 13.3333ZM20 3.99992V5.33325H12V3.99992H20ZM11.0572 16.9428L12.9428 15.0571L16 18.1143L19.0572 15.0571L20.9428 16.9428L17.8856 19.9999L20.9428 23.0571L19.0572 24.9428L16 21.8856L12.9428 24.9428L11.0572 23.0571L14.1144 19.9999L11.0572 16.9428Z" fill="#333333"/>
</svg>
