<svg width="32" height="32" viewBox="0 0 32 32" fill="none" xmlns="http://www.w3.org/2000/svg">
<path fill-rule="evenodd" clip-rule="evenodd" d="M16 30.6666C7.89986 30.6666 1.33337 24.1002 1.33337 16C1.33337 7.8998 7.89986 1.33331 16 1.33331H16.5523L30.6667 15.4477V16C30.6667 24.1002 24.1002 30.6666 16 30.6666ZM4.00004 16C4.00004 22.6274 9.37262 28 16 28C21.7419 28 26.5419 23.9672 27.7221 18.5795C26.7603 18.8321 25.76 18.9629 24.7408 18.9629C18.277 18.9629 13.0371 13.723 13.0371 7.25925C13.0371 6.24003 13.1679 5.23976 13.4205 4.2779C8.03284 5.45808 4.00004 10.2581 4.00004 16ZM16.0885 4.64075C15.8354 5.47882 15.7038 6.35878 15.7038 7.25925C15.7038 12.2503 19.7498 16.2963 24.7408 16.2963C25.6413 16.2963 26.5212 16.1646 27.3593 15.9115L16.0885 4.64075Z" fill="#FB8D8D"/>
</svg>
