<svg width="116" height="99" viewBox="0 0 116 99" fill="none" xmlns="http://www.w3.org/2000/svg">
<path d="M2.35597 55.8156C-5.8399 34.0635 15.2364 14.4441 26.6798 14.3136C43.3582 14.1234 61.5022 -4.45651 85.9174 1.69601C110.333 7.84854 115.252 31.1765 115.518 54.5249C115.784 77.8734 91.5217 97.0802 61.3263 97.4246C31.1308 97.769 10.5518 77.5676 2.35597 55.8156Z" fill="#AA92A9"/>
<circle cx="63.0877" cy="40.3722" r="3.21225" fill="#333333"/>
<circle cx="82.3612" cy="37.963" r="3.21225" fill="#333333"/>
<ellipse cx="74.3306" cy="41.5767" rx="1.60612" ry="2.00765" fill="#FB8D8D"/>
<path d="M13.9795 52.2925L22.9972 45.5782L37.8433 65.5174L28.8255 72.2317L13.9795 52.2925Z" fill="white"/>
<path d="M22.9972 45.5782C23.8172 46.6794 22.4631 49.0752 19.973 50.9293C17.4828 52.7834 14.7994 53.3937 13.9795 52.2925C13.1596 51.1913 14.5136 48.7955 17.0038 46.9414C19.4939 45.0873 22.1773 44.477 22.9972 45.5782Z" fill="white"/>
<path d="M37.8433 65.5174C38.6632 66.6186 37.3092 69.0144 34.819 70.8685C32.3288 72.7226 29.6454 73.3329 28.8255 72.2317C28.0056 71.1305 29.3596 68.7347 31.8498 66.8806C34.34 65.0265 37.0233 64.4162 37.8433 65.5174Z" fill="white"/>
</svg>
