<svg width="122" height="115" viewBox="0 0 122 115" fill="none" xmlns="http://www.w3.org/2000/svg">
<path d="M4.14377 63.8563C-4.05211 42.1043 0.787712 19.0406 26.7877 6.04079C42.5992 -1.86486 69.8727 -0.111728 94.288 6.04079C118.703 12.1933 122.788 32.0408 119.788 58.5408C116.788 85.0407 91.9833 113.196 61.7878 113.541C31.5924 113.885 12.3396 85.6083 4.14377 63.8563Z" fill="#FEEBC5"/>
<circle cx="64.8756" cy="48.4132" r="3.21225" fill="#333333"/>
<circle cx="84.149" cy="46.004" r="3.21225" fill="#333333"/>
<ellipse cx="76.1185" cy="49.6178" rx="1.60612" ry="2.00765" fill="#FB8D8D"/>
<path d="M15.7673 60.3335L24.7851 53.6192L39.6311 73.5584L30.6134 80.2727L15.7673 60.3335Z" fill="white"/>
<path d="M24.7851 53.6192C25.605 54.7204 24.251 57.1162 21.7608 58.9703C19.2706 60.8244 16.5872 61.4347 15.7673 60.3335C14.9474 59.2323 16.3014 56.8366 18.7916 54.9824C21.2818 53.1283 23.9652 52.518 24.7851 53.6192Z" fill="white"/>
<path d="M39.6311 73.5584C40.451 74.6596 39.097 77.0554 36.6068 78.9095C34.1167 80.7636 31.4333 81.3739 30.6134 80.2727C29.7934 79.1715 31.1474 76.7758 33.6376 74.9217C36.1278 73.0676 38.8112 72.4572 39.6311 73.5584Z" fill="white"/>
</svg>
