<svg width="114" height="96" viewBox="0 0 114 96" fill="none" xmlns="http://www.w3.org/2000/svg">
<path d="M112.279 48.2976C120.164 73.2514 99.033 95.3878 87.6789 95.3878C71.1305 95.3878 54.2474 59.232 41.9471 76.5387C29.6468 93.8453 0 74.9716 0 48.2976C0 21.6236 24.2874 0 54.2474 0C84.2073 0 104.395 23.3438 112.279 48.2976Z" fill="#FFCACA"/>
<path d="M11.3415 50.104L20.0499 43.62L34.3866 62.8752L25.6782 69.3591L11.3415 50.104Z" fill="white"/>
<path d="M20.0499 43.62C20.8417 44.6835 19.5341 46.997 17.1294 48.7875C14.7246 50.578 12.1333 51.1674 11.3415 50.104C10.5497 49.0405 11.8573 46.727 14.262 44.9365C16.6668 43.146 19.2581 42.5566 20.0499 43.62Z" fill="white"/>
<path d="M34.3866 62.8752C35.1784 63.9386 33.8708 66.2522 31.4661 68.0427C29.0613 69.8332 26.47 70.4226 25.6782 69.3591C24.8864 68.2957 26.194 65.9821 28.5987 64.1916C31.0035 62.4011 33.5948 61.8117 34.3866 62.8752Z" fill="white"/>
<circle cx="62.0408" cy="31.0205" r="3.10204" fill="#333333"/>
<circle cx="72.8979" cy="30.2449" r="3.10204" fill="#333333"/>
<ellipse cx="69.7959" cy="36.8367" rx="1.55102" ry="1.93878" fill="#FB8D8D"/>
</svg>
