<svg width="375" height="812" viewBox="0 0 375 812" fill="none" xmlns="http://www.w3.org/2000/svg">
<g clip-path="url(#clip0)">
<rect width="375" height="812" fill="white"/>
<rect x="46" y="54" width="347" height="767" rx="23" fill="#FFCACA"/>
<rect x="27" y="24" width="321" height="753" rx="21" stroke="black" stroke-width="4"/>
<path d="M241 351.5C241 383.809 214.809 410 182.5 410C150.191 410 124 383.809 124 351.5C124 319.191 150.191 293 182.5 293C214.809 293 241 319.191 241 351.5Z" fill="#3C3C3C"/>
<path d="M246 414.5C246 446.809 219.809 473 187.5 473C155.191 473 129 446.809 129 414.5C129 382.191 155.191 356 187.5 356C219.809 356 246 382.191 246 414.5Z" fill="#FFCACA"/>
<path d="M187 350.5C187 382.809 160.809 409 128.5 409C96.1913 409 70 382.809 70 350.5C70 318.191 96.1913 292 128.5 292C160.809 292 187 318.191 187 350.5Z" fill="#FFCACA"/>
<path d="M302.5 398.5C302.5 429.98 276.98 455.5 245.5 455.5C214.02 455.5 188.5 429.98 188.5 398.5C188.5 367.02 214.02 341.5 245.5 341.5C276.98 341.5 302.5 367.02 302.5 398.5Z" stroke="#FFCACA" stroke-width="3"/>
<rect x="143.5" y="317.5" width="78" height="78" rx="13.5" stroke="white" stroke-width="7"/>
<path d="M143.291 434.137C143.291 431.129 141.878 428.622 139.053 426.617C136.273 424.612 132.49 423.609 127.705 423.609C125.882 423.609 124.72 423.678 124.219 423.814C123.717 423.951 123.467 424.247 123.467 424.703V444.664C123.467 445.029 123.581 445.257 123.809 445.348C124.082 445.439 124.811 445.484 125.996 445.484C131.146 445.484 135.316 444.436 138.506 442.34C141.696 440.243 143.291 437.509 143.291 434.137ZM114.854 421.217C117.178 421.217 120.14 421.103 123.74 420.875C127.34 420.602 129.915 420.465 131.465 420.465C137.435 420.465 141.992 421.878 145.137 424.703C147.826 427.164 149.17 430.195 149.17 433.795V433.863C149.124 436.37 148.441 438.603 147.119 440.562C145.798 442.477 144.111 443.98 142.061 445.074C138.688 446.988 133.447 447.945 126.338 447.945H124.219C123.626 447.945 123.33 448.31 123.33 449.039V463.258C123.33 464.078 123.467 464.693 123.74 465.104C124.059 465.468 124.652 465.673 125.518 465.719C129.665 465.901 131.875 466.038 132.148 466.129C132.786 466.311 133.105 466.835 133.105 467.701V467.77C133.105 468.863 132.65 469.41 131.738 469.41L130.371 469.273C129.46 469.228 128.229 469.16 126.68 469.068C125.13 469.023 123.604 469 122.1 469C120.55 469 119.001 469.023 117.451 469.068C115.902 469.16 114.671 469.228 113.76 469.273L112.393 469.41C111.436 469.41 110.957 468.863 110.957 467.77C110.957 467.587 110.957 467.428 110.957 467.291C111.003 467.109 111.025 466.972 111.025 466.881C111.071 466.744 111.139 466.63 111.23 466.539C111.322 466.448 111.39 466.38 111.436 466.334C111.527 466.243 111.641 466.174 111.777 466.129C111.96 466.083 112.096 466.061 112.188 466.061C112.324 466.015 112.507 465.992 112.734 465.992C113.008 465.947 113.236 465.924 113.418 465.924C113.646 465.878 113.942 465.855 114.307 465.855C114.671 465.81 115.013 465.764 115.332 465.719C116.107 465.628 116.608 465.445 116.836 465.172C117.109 464.853 117.246 464.397 117.246 463.805V426.344C117.246 425.979 117.223 425.706 117.178 425.523C117.178 425.296 117.041 425.09 116.768 424.908C116.54 424.68 116.198 424.566 115.742 424.566H113.213C112.894 424.566 112.643 424.544 112.461 424.498C112.279 424.452 112.074 424.293 111.846 424.02C111.663 423.701 111.572 423.268 111.572 422.721C111.572 421.718 112.074 421.217 113.076 421.217H114.854ZM151.494 454.713C151.494 450.019 152.975 446.191 155.938 443.229C158.945 440.266 162.5 438.785 166.602 438.785C170.794 438.785 174.281 440.289 177.061 443.297C179.84 446.259 181.23 450.064 181.23 454.713C181.23 459.498 179.772 463.303 176.855 466.129C173.984 468.909 170.475 470.299 166.328 470.299C161.953 470.299 158.376 468.795 155.596 465.787C152.861 462.779 151.494 459.088 151.494 454.713ZM159.561 463.395C161.338 465.719 163.662 466.881 166.533 466.881C169.404 466.881 171.774 465.719 173.643 463.395C175.511 461.025 176.445 458.222 176.445 454.986C176.445 451.34 175.397 448.287 173.301 445.826C171.25 443.32 168.857 442.066 166.123 442.066C163.844 442.066 161.725 443.069 159.766 445.074C157.852 447.079 156.895 450.178 156.895 454.371C156.895 458.017 157.783 461.025 159.561 463.395ZM198.594 468.043C198.594 468.954 198.32 469.41 197.773 469.41C197.728 469.41 197.568 469.387 197.295 469.342C197.067 469.342 196.748 469.319 196.338 469.273C195.928 469.228 195.472 469.182 194.971 469.137C194.469 469.091 193.877 469.046 193.193 469C192.51 469 191.849 469 191.211 469C190.573 469 189.935 469 189.297 469C188.659 469.046 188.089 469.068 187.588 469.068C187.087 469.114 186.631 469.16 186.221 469.205C185.856 469.251 185.56 469.273 185.332 469.273C185.104 469.319 184.967 469.342 184.922 469.342C184.238 469.342 183.896 468.932 183.896 468.111V467.906C183.896 467.314 184.033 466.949 184.307 466.812C184.626 466.63 185.446 466.471 186.768 466.334C187.588 466.243 188.112 465.992 188.34 465.582C188.613 465.126 188.75 464.488 188.75 463.668V428.053C188.75 427.916 188.727 427.802 188.682 427.711C188.682 427.574 188.659 427.46 188.613 427.369C188.568 427.278 188.522 427.21 188.477 427.164C188.477 427.073 188.408 427.005 188.271 426.959C188.18 426.868 188.089 426.799 187.998 426.754C187.952 426.708 187.816 426.64 187.588 426.549C187.406 426.412 187.269 426.321 187.178 426.275C186.722 426.002 186.221 425.729 185.674 425.455C185.173 425.136 184.808 424.908 184.58 424.771C184.398 424.635 184.193 424.498 183.965 424.361C183.737 424.179 183.577 424.042 183.486 423.951C183.441 423.814 183.418 423.678 183.418 423.541V423.473C183.418 423.245 184.284 422.675 186.016 421.764C188.158 420.715 190.163 419.69 192.031 418.688C192.305 418.505 192.601 418.414 192.92 418.414C193.558 418.414 193.877 418.847 193.877 419.713V464.01C193.877 464.283 193.877 464.511 193.877 464.693C193.923 464.876 193.968 465.058 194.014 465.24C194.059 465.377 194.105 465.491 194.15 465.582C194.196 465.673 194.287 465.764 194.424 465.855C194.606 465.947 194.72 466.015 194.766 466.061C194.857 466.106 195.016 466.174 195.244 466.266C195.518 466.311 195.7 466.357 195.791 466.402C195.928 466.402 196.178 466.425 196.543 466.471C196.953 466.516 197.249 466.562 197.432 466.607C198.206 466.744 198.594 467.223 198.594 468.043ZM216.025 442.203C212.562 442.203 209.896 443.251 208.027 445.348C206.159 447.444 205.225 450.292 205.225 453.893C205.225 457.857 206.546 461.002 209.189 463.326C211.833 465.65 214.567 466.812 217.393 466.812C218.805 466.812 220.173 466.539 221.494 465.992C222.861 465.4 223.682 464.671 223.955 463.805C224.137 463.076 224.229 462.551 224.229 462.232V446.51C224.229 445.917 223.978 445.37 223.477 444.869C221.562 443.092 219.079 442.203 216.025 442.203ZM216.162 439.4C217.529 439.4 218.805 439.492 219.99 439.674C221.175 439.811 222.087 439.97 222.725 440.152L223.682 440.426C224.046 440.426 224.229 440.221 224.229 439.811V428.053C224.229 427.916 224.206 427.802 224.16 427.711C224.16 427.574 224.137 427.46 224.092 427.369C224.092 427.278 224.046 427.187 223.955 427.096C223.91 427.005 223.864 426.936 223.818 426.891C223.773 426.845 223.659 426.777 223.477 426.686C223.34 426.594 223.203 426.526 223.066 426.48C222.975 426.389 222.793 426.298 222.52 426.207C222.292 426.116 222.064 426.025 221.836 425.934C221.654 425.842 221.38 425.729 221.016 425.592C220.651 425.455 220.309 425.318 219.99 425.182C219.124 424.954 218.691 424.589 218.691 424.088C218.691 423.814 218.896 423.541 219.307 423.268C225.14 420.442 228.148 419.029 228.33 419.029C228.877 419.029 229.15 419.348 229.15 419.986C229.15 420.442 229.128 421.65 229.082 423.609C229.036 425.523 228.991 428.189 228.945 431.607C228.945 434.98 228.945 438.671 228.945 442.682C228.945 455.169 229.014 462.027 229.15 463.258C229.15 463.395 229.15 463.508 229.15 463.6C229.196 463.645 229.242 463.714 229.287 463.805C229.333 463.85 229.378 463.896 229.424 463.941C229.515 463.987 229.606 464.033 229.697 464.078C229.834 464.078 229.948 464.101 230.039 464.146C230.13 464.146 230.267 464.146 230.449 464.146C230.677 464.146 230.859 464.146 230.996 464.146C231.178 464.146 231.406 464.169 231.68 464.215C231.953 464.215 232.204 464.215 232.432 464.215C233.343 464.215 233.799 464.557 233.799 465.24C233.799 465.559 233.662 465.81 233.389 465.992C233.161 466.174 232.637 466.448 231.816 466.812C231.042 467.132 230.312 467.496 229.629 467.906C228.717 468.408 227.897 468.909 227.168 469.41C226.439 469.957 225.915 470.344 225.596 470.572C225.277 470.846 225.026 470.982 224.844 470.982C224.479 470.982 224.297 470.732 224.297 470.23V467.975C224.297 467.838 224.229 467.77 224.092 467.77L223.682 468.043C223.454 468.225 223.112 468.453 222.656 468.727C222.201 469 221.654 469.273 221.016 469.547C220.423 469.82 219.648 470.048 218.691 470.23C217.78 470.413 216.823 470.504 215.82 470.504C211.309 470.504 207.617 468.977 204.746 465.924C201.921 462.825 200.508 459.02 200.508 454.508C200.508 450.452 201.807 446.92 204.404 443.912C207.048 440.904 210.944 439.4 216.094 439.4H216.162ZM235.918 444.869C235.918 443.502 237.012 442.135 239.199 440.768C241.432 439.355 243.916 438.648 246.65 438.648C247.516 438.648 248.405 438.74 249.316 438.922C250.228 439.104 251.253 439.423 252.393 439.879C253.577 440.335 254.557 441.132 255.332 442.271C256.152 443.365 256.654 444.71 256.836 446.305C256.927 447.398 256.973 448.242 256.973 448.834V462.643C256.973 463.463 257.132 464.124 257.451 464.625C257.77 465.126 258.089 465.445 258.408 465.582C258.727 465.673 259.046 465.719 259.365 465.719C260.003 465.719 260.505 465.536 260.869 465.172C261.234 464.762 261.507 464.374 261.689 464.01C261.917 463.6 262.168 463.395 262.441 463.395C262.852 463.395 263.057 463.691 263.057 464.283C263.057 465.377 262.555 466.585 261.553 467.906C260.55 469.182 259.251 469.82 257.656 469.82C257.064 469.82 256.494 469.729 255.947 469.547C255.4 469.365 254.945 469.137 254.58 468.863C254.215 468.544 253.874 468.248 253.555 467.975C253.281 467.701 253.053 467.451 252.871 467.223L252.666 466.949C252.62 466.949 252.598 466.949 252.598 466.949C252.598 466.904 252.575 466.881 252.529 466.881C252.438 466.881 252.37 466.926 252.324 467.018C252.279 467.109 252.119 467.291 251.846 467.564C251.572 467.838 251.185 468.134 250.684 468.453C248.633 469.729 246.468 470.367 244.189 470.367C241.82 470.367 239.883 469.615 238.379 468.111C236.921 466.607 236.191 464.762 236.191 462.574V462.506C236.191 459.863 237.171 457.789 239.131 456.285C239.814 455.738 240.703 455.26 241.797 454.85C242.891 454.394 243.962 454.052 245.01 453.824C246.104 453.596 247.129 453.414 248.086 453.277C249.043 453.095 249.84 452.981 250.479 452.936L251.436 452.867C251.8 452.776 251.982 452.457 251.982 451.91V449.381C251.982 446.965 251.436 445.097 250.342 443.775C249.202 442.545 247.835 441.93 246.24 441.93C243.779 441.93 241.774 443.479 240.225 446.578C239.814 447.125 239.313 447.398 238.721 447.398C237.992 447.398 237.331 447.171 236.738 446.715C236.191 446.259 235.918 445.644 235.918 444.869ZM245.83 466.539C246.878 466.539 247.858 466.311 248.77 465.855C249.727 465.4 250.387 464.99 250.752 464.625C251.117 464.26 251.413 463.941 251.641 463.668C251.914 463.303 252.051 462.779 252.051 462.096V460.387V457.516C252.051 456.65 252.005 456.103 251.914 455.875C251.868 455.602 251.686 455.465 251.367 455.465C250.228 455.465 248.792 455.647 247.061 456.012C245.374 456.376 244.03 457.037 243.027 457.994C241.934 458.906 241.387 460.182 241.387 461.822C241.387 463.554 241.865 464.83 242.822 465.65C243.46 466.243 244.463 466.539 245.83 466.539Z" fill="black"/>
</g>
<defs>
<clipPath id="clip0">
<rect width="375" height="812" fill="white"/>
</clipPath>
</defs>
</svg>
