<svg width="119" height="104" viewBox="0 0 119 104" fill="none" xmlns="http://www.w3.org/2000/svg">
<path d="M6.00038 75.6533C-2.85452 52.1534 -2.49959 21.1532 18.5004 10.6533C34.3119 2.74764 66.5852 -2.99924 91.0005 3.15328C115.416 9.3058 119.5 29.1533 116.5 55.6533C113.5 82.1533 103.5 98.73 69.5002 102.653C56.5004 104.153 14.8553 99.1533 6.00038 75.6533Z" fill="#9ECBE4"/>
<circle cx="61.588" cy="45.5257" r="3.21225" fill="#333333"/>
<path d="M80.8614 44.941C80.8614 46.7151 79.4233 48.1533 77.6492 48.1533C75.8751 48.1533 74.437 46.7151 74.437 44.941C74.437 43.1669 75.8751 41.7288 77.6492 41.7288C79.4233 41.7288 80.8614 43.1669 80.8614 44.941Z" fill="#333333"/>
<ellipse cx="70.1064" cy="49.161" rx="1.60612" ry="2.00765" fill="#FB8D8D"/>
<path d="M12.4798 57.4461L21.4975 50.7318L36.3436 70.671L27.3258 77.3853L12.4798 57.4461Z" fill="white"/>
<path d="M21.4975 50.7318C22.3175 51.833 20.9635 54.2287 18.4733 56.0828C15.9831 57.9369 13.2997 58.5473 12.4798 57.4461C11.6599 56.3449 13.0139 53.9491 15.5041 52.095C17.9942 50.2409 20.6776 49.6306 21.4975 50.7318Z" fill="white"/>
<path d="M36.3436 70.671C37.1635 71.7722 35.8095 74.1679 33.3193 76.0221C30.8291 77.8762 28.1457 78.4865 27.3258 77.3853C26.5059 76.2841 27.8599 73.8883 30.3501 72.0342C32.8403 70.1801 35.5237 69.5698 36.3436 70.671Z" fill="white"/>
</svg>
