<svg width="32" height="32" viewBox="0 0 32 32" fill="none" xmlns="http://www.w3.org/2000/svg">
<path fill-rule="evenodd" clip-rule="evenodd" d="M28 29.3334H8C5.79086 29.3334 4 27.5426 4 25.3334V6.66675C4 4.45761 5.79086 2.66675 8 2.66675H28V24.0001C27.2636 24.0001 26.6667 24.597 26.6667 25.3334C26.6667 26.0698 27.2636 26.6667 28 26.6667V29.3334ZM24 25.3334C24 24.8659 24.0802 24.4171 24.2276 24.0001H8C7.26362 24.0001 6.66667 24.597 6.66667 25.3334C6.66667 26.0698 7.26362 26.6667 8 26.6667H24.2276C24.0802 26.2497 24 25.8009 24 25.3334ZM8 5.33341H25.3333V21.3334H8C7.53249 21.3334 7.08371 21.4136 6.66667 21.561V6.66675C6.66667 5.93037 7.26362 5.33341 8 5.33341Z" fill="#333333"/>
<path fill-rule="evenodd" clip-rule="evenodd" d="M16.5 12.5H21V13.5H16.5V18H15.5V13.5H11V12.5H15.5V8H16.5V12.5Z" fill="#333333" stroke="#333333"/>
</svg>
