<svg width="128" height="128" viewBox="0 0 128 128" fill="none" xmlns="http://www.w3.org/2000/svg">
<ellipse rx="25.8315" ry="20.6478" transform="matrix(0.514286 0.857619 -0.874043 0.485848 85.513 95.8147)" fill="#AA92A9"/>
<ellipse rx="25.8315" ry="20.6478" transform="matrix(-0.514286 0.857619 -0.874043 -0.485849 42.2723 93.3258)" fill="#AA92A9"/>
<ellipse rx="26.5661" ry="20.0662" transform="matrix(-0.998333 -0.0577084 0.0622391 -0.998061 27.7707 56.6186)" fill="#AA92A9"/>
<ellipse rx="26.562" ry="20.0696" transform="matrix(0.996345 -0.0854257 0.0921025 0.99575 99.6866 57.3115)" fill="#AA92A9"/>
<ellipse rx="25.6482" ry="20.7879" transform="matrix(-0.268117 -0.963386 0.968298 -0.249799 62.9018 29.9019)" fill="#AA92A9"/>
<path d="M85.3314 64.5049C85.3314 76.2781 75.535 85.8222 63.4506 85.8222C51.3661 85.8222 41.5697 76.2781 41.5697 64.5049C41.5697 52.7317 51.3661 43.1876 63.4506 43.1876C75.535 43.1876 85.3314 52.7317 85.3314 64.5049Z" fill="#FFCACA"/>
</svg>
