<svg width="49" height="49" viewBox="0 0 49 49" fill="none" xmlns="http://www.w3.org/2000/svg">
<path fill-rule="evenodd" clip-rule="evenodd" d="M24.5 46.9583C12.0966 46.9583 2.04163 36.9034 2.04163 24.5C2.04163 12.0966 12.0966 2.04163 24.5 2.04163C36.9034 2.04163 46.9583 12.0966 46.9583 24.5C46.9583 36.9034 36.9034 46.9583 24.5 46.9583ZM24.5 42.875C34.6482 42.875 42.875 34.6482 42.875 24.5C42.875 14.3517 34.6482 6.12495 24.5 6.12495C14.3518 6.12495 6.125 14.3517 6.125 24.5C6.125 34.6482 14.3518 42.875 24.5 42.875ZM34.7083 22.4583H26.5416V14.2916H22.4583V22.4583H14.2916V26.5416H22.4583V34.7083H26.5416V26.5416H34.7083V22.4583Z" fill="#FFCACA"/>
</svg>
