<svg width="32" height="32" viewBox="0 0 32 32" fill="none" xmlns="http://www.w3.org/2000/svg">
<path fill-rule="evenodd" clip-rule="evenodd" d="M1.33337 16C1.33337 24.1002 7.89986 30.6667 16 30.6667C24.1002 30.6667 30.6667 24.1002 30.6667 16C30.6667 7.89986 24.1002 1.33337 16 1.33337C7.89986 1.33337 1.33337 7.89986 1.33337 16ZM28 16C28 22.6275 22.6275 28 16 28C9.37262 28 4.00004 22.6275 4.00004 16C4.00004 9.37262 9.37262 4.00004 16 4.00004C22.6275 4.00004 28 9.37262 28 16ZM17.3382 18.6645H18.6706V21.3312H13.3373V18.6645H14.6706V15.9978H13.3373V13.3312H17.3382V18.6645ZM17.3343 10.6645C17.3343 11.4009 16.7371 11.9978 16.0005 11.9978C15.2639 11.9978 14.6667 11.4009 14.6667 10.6645C14.6667 9.9281 15.2639 9.33115 16.0005 9.33115C16.7371 9.33115 17.3343 9.9281 17.3343 10.6645Z" fill="#FB8D8D"/>
</svg>
